<?xml version="1.0" encoding="UTF-8" standalone="no"?>
<svg width="407px" height="395px" viewBox="0 0 407 395" version="1.1" xmlns="http://www.w3.org/2000/svg" xmlns:xlink="http://www.w3.org/1999/xlink" xmlns:sketch="http://www.bohemiancoding.com/sketch/ns">
    <!-- Generator: Sketch 3.2.2 (9983) - http://www.bohemiancoding.com/sketch -->
    <title>lucssa-logo</title>
    <desc>Created with Sketch.</desc>
    <defs></defs>
    <g id="Page-1" stroke="none" stroke-width="1" fill="none" fill-rule="evenodd" sketch:type="MSPage">
        <g id="Wavy-Lines" sketch:type="MSLayerGroup" transform="translate(40.000000, 187.000000)" fill="#FFFFFF">
            <path d="M0,2 C0,2 9.46333313,-2.18456807 25.186245,2 C40.9091568,6.18456807 47.6680946,12.2790117 59.7263947,11.1025094 C68.2848638,11.1025094 75.7120285,10.1079473 83.8755875,5.64497751 C92.0391464,1.18200773 99.9981303,1.2580036 106.275978,1.12362367 C113.422276,0.970654191 120.768298,3.04365123 128.237295,5.33913469 C137.173747,8.08561803 146.286243,11.1506011 155.443329,11.1025094 C170.514567,11.0233575 183.756393,1.68046638 198.483078,1.12362367 C216.168461,0.45490718 233.215532,11.0795299 248.764481,11.1025094 C265.375776,11.127059 274.3237,3.39380497 290.009277,1.12362367 C305.694855,-1.14655763 317.157745,5.33913463 317.157745,5.33913463 L308.205292,36.1173725 C308.205292,36.1173725 298.678691,35.0659617 290.009277,36.1173725 C285.23765,36.6960667 281.509669,38.5779882 277.932281,40.0588931 C267.855255,44.2304057 261.231927,45.4896188 252.14798,45.5451068 C244.732936,45.5904006 233.765655,43.9004276 226.514335,40.4549945 C219.263016,37.0095615 210.157326,36.258116 202.193222,36.1173725 C195.468956,35.9985396 187.832275,38.096857 179.714081,41.0531558 C171.595886,44.0094547 163.939941,45.5551921 155.443329,45.5451068 C147.33185,45.5354787 138.277006,42.3703612 129.849762,40.0588931 C121.579518,37.7904879 113.933837,36.3773488 106.275978,36.1173725 C97.1245711,35.8066916 89.8577878,39.8448674 81.1987228,42.5138645 C74.313791,44.6360177 65.8775756,45.4795383 59.7263947,45.5451068 C46.9401702,45.6814017 38.2169048,40.0409076 30.5449352,38.4838352 C16.7789507,35.6899456 9.40699673,36.1173725 9.40699673,36.1173725 L0,2 Z" id="Wavy-Line-Top" sketch:type="MSShapeGroup"></path>
            <path d="M22.1923487,69.1236237 C22.1923487,69.1236237 50.089222,80.2790117 62.147522,79.1025094 C70.7059911,79.1025094 78.1331558,78.1079473 86.2967148,73.6449775 C94.4602737,69.1820077 102.419258,69.2580036 108.697105,69.1236237 C115.843404,68.9706542 123.189426,71.0436512 130.658423,73.3391347 C139.594874,76.085618 148.70737,79.1506011 157.864456,79.1025094 C172.935694,79.0233575 186.177521,69.6804664 200.904205,69.1236237 C218.589589,68.4549072 235.636659,79.0795299 251.185608,79.1025094 C267.796903,79.127059 294.719143,69.1236237 294.719143,69.1236237 L270.102139,110.513864 C270.102139,110.513864 263.653054,113.489619 254.569107,113.545107 C247.154063,113.590401 236.186782,111.900428 228.935462,108.454995 C221.684143,105.009561 212.578454,104.258116 204.614349,104.117372 C197.890084,103.99854 190.253403,106.096857 182.135208,109.053156 C174.017014,112.009455 166.361068,113.555192 157.864456,113.545107 C149.752977,113.535479 140.698134,110.370361 132.270889,108.058893 C124.000645,105.790488 116.354964,104.377349 108.697105,104.117372 C99.5456984,103.806692 92.2789151,107.844867 83.6198502,110.513864 C76.7349183,112.636018 68.2987029,113.479538 62.147522,113.545107 C49.3612975,113.681402 44.1805901,108.058891 44.1805901,108.058891 L22.1923487,69.1236237 Z" id="Wavy-Line-Middle" sketch:type="MSShapeGroup"></path>
            <path d="M117.492989,178.99564 C94.1328967,168.024214 71.8116505,149.641279 76.4554887,147.10252 C84.6190476,142.63955 102.419258,137.258014 108.697105,137.123634 C115.843404,136.970664 123.189426,139.043662 130.658423,141.339145 C139.594874,144.085628 148.70737,147.150611 157.864456,147.10252 C172.935694,147.023368 186.177521,137.680477 200.904205,137.123634 C218.589589,136.454917 238.396679,144.91998 238.396679,144.91998 C238.396679,144.91998 221.901406,164.067213 200.904202,176.109188 C183.66963,185.993279 161.694656,189.201613 157.864453,189.197067 C154.367186,189.192916 135.198387,187.311251 117.492989,178.99564 Z" id="Wavy-Line-Bottom" sketch:type="MSShapeGroup"></path>
        </g>
        <path d="M28.3453854,104.940951 C27.0796741,81.4104133 28.3453854,35.1560506 28.3453854,35.1560506 C28.3453854,35.1560506 141.392839,22.5726238 197.874873,22.5726238 C254.438839,22.5726238 367.483386,35.1560506 367.483386,35.1560506 C367.483386,35.1560506 368.571292,81.6721003 367.483378,104.940951 C366.524588,125.448028 361.343274,166.483835 361.343274,166.483835 C361.343274,166.483835 338.678691,163.065962 330.009277,164.117372 C325.23765,164.696067 321.509669,166.577988 317.932281,168.058893 C307.855255,172.230406 301.231927,173.489619 292.14798,173.545107 C284.732936,173.590401 273.765655,171.900428 266.514335,168.454995 C259.263016,165.009561 250.157326,164.258116 242.193222,164.117372 C235.468956,163.99854 227.832275,166.096857 219.714081,169.053156 C211.595886,172.009455 203.939941,173.555192 195.443329,173.545107 C187.33185,173.535479 178.277006,170.370361 169.849762,168.058893 C161.579518,165.790488 153.933837,164.377349 146.275978,164.117372 C137.124571,163.806692 129.857788,167.844867 121.198723,170.513864 C114.313791,172.636018 105.877576,173.479538 99.7263947,173.545107 C86.9401702,173.681402 78.2169048,168.040908 70.5449352,166.483835 C56.7789507,163.689946 35.4095278,166.483835 35.4095278,166.483835 C35.4095278,166.483835 29.4343882,125.186342 28.3453854,104.940951 Z" id="Top-of-Shield" fill="#FFFFFF" sketch:type="MSShapeGroup"></path>
        <g id="Rectangle-6-+-Rectangle-7" sketch:type="MSLayerGroup" transform="translate(197.732233, 132.439340) rotate(45.000000) translate(-197.732233, -132.439340) translate(162.232233, 94.439340)" fill="#333333">
            <rect id="Rectangle-6" sketch:type="MSShapeGroup" x="3.41060513e-13" y="3.55271368e-13" width="15" height="75"></rect>
            <path d="M27.6539459,32.3460541 L42.6539459,32.3460541 L42.6539459,102.653946 C42.6539459,102.653946 38.8057382,100.168972 34.1243525,95.706192 C29.4429667,91.243412 27.6539459,87.160965 27.6539459,87.160965 L27.6539459,32.3460541 Z" id="Rectangle-7" sketch:type="MSShapeGroup" transform="translate(35.153946, 67.500000) rotate(-90.000000) translate(-35.153946, -67.500000) "></path>
        </g>
        <g id="Rectangle-6-+-Rectangle-8" sketch:type="MSLayerGroup" transform="translate(292.267767, 132.439340) scale(-1, 1) rotate(45.000000) translate(-292.267767, -132.439340) translate(256.767767, 94.439340)" fill="#333333">
            <rect id="Rectangle-6" sketch:type="MSShapeGroup" x="2.84217094e-14" y="0" width="15" height="75"></rect>
            <path d="M27.8690643,32.1309357 L42.8690643,32.1309357 L42.8690643,102.869064 C42.8690643,102.869064 37.4537148,98.8322983 34.4421992,95.7060204 C31.4306836,92.5797424 27.8690643,87.1248665 27.8690643,87.1248665 L27.8690643,32.1309357 Z" id="Rectangle-7" sketch:type="MSShapeGroup" transform="translate(35.369064, 67.500000) rotate(-90.000000) translate(-35.369064, -67.500000) "></path>
        </g>
        <path d="M238.620392,65.9190531 L253.620392,65.9190531 L253.620392,164.960641 C253.620392,164.960641 249.891419,167.381951 247.031906,169.641191 C244.172393,171.90043 238.620392,176.771722 238.620392,176.771722 L238.620392,65.9190531 Z" id="Rectangle-10" fill="#333333" sketch:type="MSShapeGroup" transform="translate(246.120392, 121.345387) rotate(22.500000) translate(-246.120392, -121.345387) "></path>
        <rect id="Rectangle-11" fill="#333333" sketch:type="MSShapeGroup" x="52" y="117" width="94" height="10"></rect>
        <rect id="Rectangle-12" stroke="#333333" stroke-width="5" fill="#FFFFFF" sketch:type="MSShapeGroup" x="57" y="57" width="84" height="60" rx="3"></rect>
        <rect id="Rectangle-13" fill="#FFFFFF" sketch:type="MSShapeGroup" x="89" y="123" width="21" height="2" rx="3"></rect>
    </g>
</svg>